<svg xmlns="http://www.w3.org/2000/svg" width="19.672" height="17.281" viewBox="0 0 19.672 17.281">
  <g id="Es33sy" transform="translate(-217.996 -103.213)">
    <g id="Group_272" data-name="Group 272" transform="translate(217.996 103.213)">
      <g id="Group_271" data-name="Group 271">
        <path id="Path_252" data-name="Path 252" d="M238.493,106.441a3.087,3.087,0,0,1-.707,1.2,22.876,22.876,0,0,1-1.843,1.925,3.361,3.361,0,0,1-1.9.969,2.815,2.815,0,0,1-1.137-.158.341.341,0,0,0-.39.117q-4.247,4.487-8.5,8.968-.372.392-.742.786c-.02.021-.04.042-.061.063a.514.514,0,0,1-.581.14,2.017,2.017,0,0,1-1.242-1.278.431.431,0,0,1,.139-.485c.23-.223.462-.444.695-.665l6.395-6.07q1.343-1.274,2.685-2.551c.024-.023.048-.045.071-.069a.221.221,0,0,0,.056-.312,2.771,2.771,0,0,1-.237-.859,2.539,2.539,0,0,1,.517-1.8,11.592,11.592,0,0,1,1.433-1.572c.388-.369.8-.716,1.2-1.068a2.082,2.082,0,0,1,.937-.513l.109.01c.122.045.248.082.365.14.261.127.264.163.062.378l-.03.032q-1.086,1.128-2.173,2.258c-.124.128-.245.259-.357.4a.269.269,0,0,0,.009.378.3.3,0,0,0,.4.1,1.3,1.3,0,0,0,.221-.159q1.078-.915,2.153-1.834l.649-.553c.066-.057.138-.089.213-.017.109.1.216.206.319.313a.183.183,0,0,1,.011.258c-.028.038-.058.075-.089.11q-1.147,1.347-2.295,2.694a1.339,1.339,0,0,0-.152.212.293.293,0,0,0,.067.377.285.285,0,0,0,.386.051,1.418,1.418,0,0,0,.22-.178q1.014-.97,2.026-1.942c.183-.174.365-.35.555-.517a.184.184,0,0,1,.293.056c.085.156.151.321.225.482Z" transform="translate(-218.822 -103.213)"/>
        <path id="Path_253" data-name="Path 253" d="M224.836,108.1a2.809,2.809,0,0,1-.233,1.11c-.092.217-.085.254.089.418l2.151,2.034c.217.2.217.2,0,.412l-.892.854c-.156.15-.242.151-.394-.008q-.983-1.025-1.964-2.053c-.036-.036-.072-.072-.106-.109a.244.244,0,0,0-.307-.054,2.636,2.636,0,0,1-2.758-.288,5.614,5.614,0,0,1-2.355-3.73,2.393,2.393,0,0,1,0-1.146,1.943,1.943,0,0,1,2.131-1.408,5.9,5.9,0,0,1,2.9,1.145,5.1,5.1,0,0,1,1.451,1.7A2.531,2.531,0,0,1,224.836,108.1Z" transform="translate(-217.996 -103.434)"/>
        <path id="Path_254" data-name="Path 254" d="M236.573,123.988a.667.667,0,0,1-.484-.168c-.231-.216-.458-.438-.675-.668q-1.943-2.058-3.88-4.12c-.015-.016-.03-.032-.045-.048-.108-.123-.111-.16,0-.277q.53-.566,1.065-1.128c.119-.124.215-.127.35,0,.242.222.475.452.713.677l4.028,3.818a.579.579,0,0,1,.148.8,2.191,2.191,0,0,1-.877.976A2.024,2.024,0,0,1,236.573,123.988Z" transform="translate(-221.28 -106.707)"/>
      </g>
    </g>
  </g>
</svg>
