<svg xmlns="http://www.w3.org/2000/svg" width="18.948" height="19.995" viewBox="0 0 18.948 19.995">
  <defs>
    <style>
      .cls-1, .cls-2 {
        stroke: none;
      }

      .cls-2 {
        fill: #000;
      }
    </style>
  </defs>
  <g id="Group_292" data-name="Group 292" transform="translate(-812.97 93.644)">
    <path id="Path_261" data-name="Path 261" d="M831.875-78.817a2.6,2.6,0,0,0-.272-.848,16.071,16.071,0,0,1-1.64-2.878,5.558,5.558,0,0,1-.2-2.387,7.628,7.628,0,0,0-.12-1.543,7.59,7.59,0,0,0-6.37-6.16,1.136,1.136,0,0,0-1.128-1.01,1.135,1.135,0,0,0-1.131,1.046,7.59,7.59,0,0,0-6.238,6.563,7.627,7.627,0,0,0-.03,1.548,5.555,5.555,0,0,1-.062,2.395,16.07,16.07,0,0,1-1.47,2.969,2.6,2.6,0,0,0-.223.862,2.157,2.157,0,0,0,2.03,2.574l7.641-.385h0L830-76.13A2.157,2.157,0,0,0,831.875-78.817Z" transform="translate(0 0)"/>
    <g id="Path_262" data-name="Path 262" transform="translate(-240.827 -640.691)">
      <path class="cls-1" d="M 1062.927612304688 566.7673950195312 C 1062.927368164062 566.7673950195312 1062.927124023438 566.7673950195312 1062.926879882812 566.7673950195312 C 1062.068969726562 566.767333984375 1061.285766601562 566.3313598632812 1060.831787109375 565.6011352539062 C 1060.798950195312 565.5484008789062 1060.8154296875 565.500244140625 1060.828247070312 565.4762573242188 C 1060.838989257812 565.4560546875 1060.871215820312 565.4088134765625 1060.939331054688 565.4061889648438 L 1064.9951171875 565.2528686523438 L 1065.000854492188 565.2528076171875 C 1065.066772460938 565.2528076171875 1065.10107421875 565.2974243164062 1065.112670898438 565.316650390625 C 1065.12646484375 565.3392944335938 1065.145385742188 565.3853759765625 1065.117309570312 565.4392700195312 C 1064.708129882812 566.2238159179688 1063.905029296875 566.7320556640625 1063.021606445312 566.765625 C 1062.990112304688 566.7667846679688 1062.958862304688 566.7673950195312 1062.927612304688 566.7673950195312 Z"/>
      <path class="cls-2" d="M 1064.737915039062 565.537841796875 L 1061.217163085938 565.6708984375 C 1061.6484375 566.2112426757812 1062.307250976562 566.5187377929688 1063.011108398438 566.4907836914062 C 1063.7080078125 566.46435546875 1064.348510742188 566.1055908203125 1064.737915039062 565.537841796875 M 1065.000854492188 564.977783203125 C 1065.300659179688 564.977783203125 1065.50146484375 565.2970581054688 1065.361206054688 565.5662841796875 C 1064.920776367188 566.4108276367188 1064.052001953125 567.001708984375 1063.031982421875 567.0404052734375 C 1062.011962890625 567.0779418945312 1061.101318359375 566.5552978515625 1060.598266601562 565.746337890625 C 1060.43505859375 565.4839477539062 1060.620239257812 565.14306640625 1060.928955078125 565.1314086914062 L 1064.984741210938 564.9780883789062 C 1064.990112304688 564.9779052734375 1064.995483398438 564.977783203125 1065.000854492188 564.977783203125 Z"/>
    </g>
  </g>
</svg>
