<svg xmlns="http://www.w3.org/2000/svg" width="16.75" height="16.75" viewBox="0 0 16.75 16.75">
  <path id="Path_166" data-name="Path 166" d="M8.213.03h.375l.179.054A1.632,1.632,0,0,1,9.9,1.066a2.651,2.651,0,0,0,.491.786,1.33,1.33,0,0,0,.867.5,2.39,2.39,0,0,0,1.251-.2,1.61,1.61,0,0,1,2.153,2.073,2.6,2.6,0,0,0-.223,1.036,1.262,1.262,0,0,0,.214.8,2.517,2.517,0,0,0,1.135.858,1.385,1.385,0,0,1,.715.616,6.223,6.223,0,0,1,.277.67v.375a.669.669,0,0,0-.045.143A1.639,1.639,0,0,1,15.7,9.91a2.438,2.438,0,0,0-.84.563,1.223,1.223,0,0,0-.4.75,2.4,2.4,0,0,0,.188,1.277,1.642,1.642,0,0,1,.125.875,1.6,1.6,0,0,1-2.233,1.269A2.45,2.45,0,0,0,11.5,14.43a1.24,1.24,0,0,0-.8.241,2.635,2.635,0,0,0-.813,1.108,1.536,1.536,0,0,1-.411.572,2.15,2.15,0,0,1-.884.429H8.213l-.188-.054A1.694,1.694,0,0,1,6.9,15.744a3.4,3.4,0,0,0-.411-.7,1.32,1.32,0,0,0-.947-.59,2.483,2.483,0,0,0-1.251.2A1.632,1.632,0,0,1,2.8,14.564a1.614,1.614,0,0,1-.652-1.992,2.6,2.6,0,0,0,.223-1.036,1.326,1.326,0,0,0-.331-.947,2.579,2.579,0,0,0-1-.688A1.381,1.381,0,0,1,.3,9.258C.191,9.053.119,8.829.03,8.606V8.231L.084,8.07a1.606,1.606,0,0,1,1-1.17,2.45,2.45,0,0,0,.858-.572,1.256,1.256,0,0,0,.411-.8,2.584,2.584,0,0,0-.2-1.251A1.605,1.605,0,0,1,2.245,2.79a1.626,1.626,0,0,1,2.01-.643,2.5,2.5,0,0,0,1.251.205,1,1,0,0,0,.563-.2,2.517,2.517,0,0,0,.858-1.135A1.438,1.438,0,0,1,7.337.459,2.012,2.012,0,0,1,8.213.03Zm.179,5.3a3.073,3.073,0,1,0,3.082,3.064A3.088,3.088,0,0,0,8.392,5.327Z" transform="translate(-0.03 -0.03)"/>
</svg>
